<svg xmlns="http://www.w3.org/2000/svg" viewBox="0 0 800 600" fill="none" stroke-linecap="round" stroke-linejoin="round">
<rect width="800" height="600" fill="#F4F2F0"/>
<g stroke="#15140F" stroke-opacity=".05" stroke-width="1"><path d="M0 0V600" /><path d="M40 0V600" /><path d="M80 0V600" /><path d="M120 0V600" /><path d="M160 0V600" /><path d="M200 0V600" /><path d="M240 0V600" /><path d="M280 0V600" /><path d="M320 0V600" /><path d="M360 0V600" /><path d="M400 0V600" /><path d="M440 0V600" /><path d="M480 0V600" /><path d="M520 0V600" /><path d="M560 0V600" /><path d="M600 0V600" /><path d="M640 0V600" /><path d="M680 0V600" /><path d="M720 0V600" /><path d="M760 0V600" /><path d="M800 0V600" /><path d="M0 0H800" /><path d="M0 40H800" /><path d="M0 80H800" /><path d="M0 120H800" /><path d="M0 160H800" /><path d="M0 200H800" /><path d="M0 240H800" /><path d="M0 280H800" /><path d="M0 320H800" /><path d="M0 360H800" /><path d="M0 400H800" /><path d="M0 440H800" /><path d="M0 480H800" /><path d="M0 520H800" /><path d="M0 560H800" /><path d="M0 600H800" /></g>
<g stroke="#15140F" stroke-width="2.5"><circle cx="400" cy="300" r="170"/><circle cx="400" cy="300" r="120" stroke="#B3AEA6"/><path d="M400 130 A170 170 0 0 1 570 300" stroke="#13B49B" stroke-width="6"/><path d="M400 470 A170 170 0 0 1 230 300" stroke="#13B49B" stroke-width="6"/><circle cx="400" cy="130" r="9" fill="#15140F" stroke="none"/><circle cx="570" cy="300" r="9" fill="#15140F" stroke="none"/><circle cx="400" cy="470" r="9" fill="#15140F" stroke="none"/><circle cx="230" cy="300" r="9" fill="#15140F" stroke="none"/><path d="M372 300h56M400 272v56"/><text x="600" y="140" font-family="IBM Plex Mono,monospace" font-size="20" fill="#5F5C55" stroke="none">PLAN</text><path d="M560 160l-60 50" stroke-dasharray="3 8"/></g>
</svg>