<svg xmlns="http://www.w3.org/2000/svg" viewBox="0 0 800 600" fill="none" stroke-linecap="round" stroke-linejoin="round">
<rect width="800" height="600" fill="#F4F2F0"/>
<g stroke="#15140F" stroke-opacity=".05" stroke-width="1"><path d="M0 0V600" /><path d="M40 0V600" /><path d="M80 0V600" /><path d="M120 0V600" /><path d="M160 0V600" /><path d="M200 0V600" /><path d="M240 0V600" /><path d="M280 0V600" /><path d="M320 0V600" /><path d="M360 0V600" /><path d="M400 0V600" /><path d="M440 0V600" /><path d="M480 0V600" /><path d="M520 0V600" /><path d="M560 0V600" /><path d="M600 0V600" /><path d="M640 0V600" /><path d="M680 0V600" /><path d="M720 0V600" /><path d="M760 0V600" /><path d="M800 0V600" /><path d="M0 0H800" /><path d="M0 40H800" /><path d="M0 80H800" /><path d="M0 120H800" /><path d="M0 160H800" /><path d="M0 200H800" /><path d="M0 240H800" /><path d="M0 280H800" /><path d="M0 320H800" /><path d="M0 360H800" /><path d="M0 400H800" /><path d="M0 440H800" /><path d="M0 480H800" /><path d="M0 520H800" /><path d="M0 560H800" /><path d="M0 600H800" /></g>
<g stroke="#15140F" stroke-width="2.5"><rect x="80" y="130" width="150" height="70" rx="14"/><rect x="80" y="265" width="150" height="70" rx="14"/><rect x="80" y="400" width="150" height="70" rx="14"/><path d="M110 165H200" stroke="#B3AEA6"/><path d="M110 300H200" stroke="#B3AEA6"/><path d="M110 435H200" stroke="#B3AEA6"/><path d="M230 165C330 165 330 300 420 300M230 300H420M230 435C330 435 330 300 420 300"/><rect x="420" y="220" width="160" height="160" rx="22"/><path d="M455 300l25 25 50-55" stroke="#13B49B" stroke-width="6"/><path d="M580 300H690" stroke="#13B49B" stroke-width="5"/><circle cx="700" cy="300" r="12" fill="#13B49B" stroke="none"/><text x="500" y="420" font-family="IBM Plex Mono,monospace" font-size="18" fill="#5F5C55" stroke="none" text-anchor="middle">INTAKE</text></g>
</svg>